# Blender v2.76 (sub 0) OBJ File: ''
# www.blender.org
mtllib planIncline-small.mtl
o Cube
v 0.500000 -0.500000 -0.500000
v 0.500000 -0.500000 0.500000
v -0.500000 -0.500000 0.500000
v -0.500000 -0.500000 -0.500000
v -0.500000 0.500000 0.500000
v -0.500000 0.500000 -0.500000
vn 0.000000 -1.000000 0.000000
vn 0.707100 0.707100 0.000000
vn 0.000000 0.000000 -1.000000
vn -1.000000 -0.000000 -0.000000
vn -0.000000 0.000000 1.000000
usemtl Material
s off
f 1//1 2//1 3//1 4//1
f 1//2 6//2 5//2 2//2
f 4//3 6//3 1//3
f 3//4 5//4 6//4 4//4
f 3//5 2//5 5//5
