# Blender v2.76 (sub 0) OBJ File: ''
# www.blender.org
mtllib sstair.mtl
o Cube
v 0.500000 -0.500000 -0.500000
v 0.500000 -0.500000 0.500000
v -0.500000 -0.500000 0.500000
v -0.500000 -0.500000 -0.500000
v 0.500000 0.500000 -0.500000
v -0.500000 0.500000 -0.500000
v 0.500000 -0.500000 0.000000
v 0.000000 -0.500000 -0.500000
v 0.500000 0.000000 -0.500000
v 0.000000 -0.500000 0.500000
v -0.500000 -0.500000 -0.000000
v -0.500000 0.000000 -0.500000
v 0.000000 0.500000 -0.500000
v 0.000000 0.000000 -0.500000
v -0.500000 0.000000 -0.000000
v 0.500000 0.000000 0.000000
v 0.000000 -0.500000 -0.000000
v 0.500000 -0.500000 0.250000
v -0.250000 -0.500000 -0.500000
v 0.500000 0.250000 -0.500000
v -0.250000 -0.500000 0.500000
v -0.500000 -0.500000 -0.250000
v -0.500000 0.250000 -0.500000
v -0.250000 0.500000 -0.500000
v -0.500000 0.495450 -0.250000
v 0.500000 -0.500000 -0.250000
v 0.250000 -0.500000 -0.500000
v 0.500000 -0.250000 -0.500000
v 0.250000 -0.500000 0.500000
v 0.500000 -0.250000 0.500000
v -0.500000 -0.500000 0.250000
v -0.500000 -0.250000 0.500000
v -0.500000 -0.250000 -0.500000
v 0.500000 0.495450 -0.250000
v 0.250000 0.500000 -0.500000
v -0.250000 0.000000 -0.500000
v 0.250000 0.000000 -0.500000
v 0.000000 0.250000 -0.500000
v 0.000000 -0.250000 -0.500000
v -0.500000 0.000000 -0.250000
v -0.500000 0.000000 0.250000
v -0.500000 -0.250000 -0.000000
v -0.500000 0.245450 -0.000000
v -0.000000 -0.250000 0.500000
v 0.500000 0.000000 0.250000
v 0.500000 0.000000 -0.250000
v 0.500000 -0.250000 0.000000
v 0.500000 0.245450 0.000000
v 0.000000 0.495450 -0.250000
v -0.250000 -0.500000 -0.000000
v 0.250000 -0.500000 -0.000000
v 0.000000 -0.500000 -0.250000
v 0.000000 -0.500000 0.250000
v 0.250000 -0.500000 0.250000
v 0.250000 -0.500000 -0.250000
v -0.250000 -0.500000 -0.250000
v -0.250000 0.495450 -0.250000
v 0.250000 0.495450 -0.250000
v 0.500000 0.245450 -0.250000
v 0.500000 -0.250000 -0.250000
v 0.500000 -0.250000 0.250000
v 0.250000 -0.250000 0.500000
v -0.250000 -0.250000 0.500000
v -0.500000 0.250000 0.250000
v -0.500000 -0.250000 0.250000
v -0.500000 -0.250000 -0.250000
v 0.250000 -0.250000 -0.500000
v 0.250000 0.250000 -0.500000
v -0.250000 0.250000 -0.500000
v -0.250000 -0.250000 -0.500000
v -0.500000 0.245450 -0.250000
v -0.250000 -0.500000 0.250000
vn 0.000000 -1.000000 -0.000000
vn -1.000000 -0.000000 -0.000000
vn 0.000000 0.000000 -1.000000
vn 0.000000 1.000000 0.000000
vn 1.000000 0.000000 0.000000
vn -0.000000 0.999800 0.018200
vn -0.000000 -0.000000 1.000000
usemtl Material
s off
f 72//1 21//1 3//1 31//1
f 71//2 25//2 6//2 23//2
f 70//3 19//3 4//3 33//3
f 69//3 36//3 12//3 23//3
f 68//3 37//3 14//3 38//3
f 67//3 27//3 8//3 39//3
f 66//2 40//2 12//2 33//2
f 65//2 41//2 15//2 42//2
f 65//4 32//4 30//4 61//4
f 41//4 45//4 16//4 15//4
f 59//4 71//4 43//4 48//4
f 60//5 46//5 16//5 47//5
f 56//1 50//1 11//1 22//1
f 55//1 51//1 17//1 52//1
f 54//1 29//1 10//1 53//1
f 51//1 54//1 53//1 17//1
f 7//1 18//1 54//1 51//1
f 18//1 2//1 29//1 54//1
f 27//1 55//1 52//1 8//1
f 1//1 26//1 55//1 27//1
f 26//1 7//1 51//1 55//1
f 19//1 56//1 22//1 4//1
f 8//1 52//1 56//1 19//1
f 52//1 17//1 50//1 56//1
f 13//6 24//6 57//6 49//6
f 24//6 6//6 25//6 57//6
f 5//6 35//6 58//6 34//6
f 35//6 13//6 49//6 58//6
f 46//5 59//5 48//5 16//5
f 9//5 20//5 59//5 46//5
f 20//5 5//5 34//5 59//5
f 26//5 60//5 47//5 7//5
f 1//5 28//5 60//5 26//5
f 28//5 9//5 46//5 60//5
f 18//5 61//5 30//5 2//5
f 7//5 47//5 61//5 18//5
f 47//5 16//5 45//5 61//5
f 29//7 62//7 44//7 10//7
f 2//7 30//7 62//7 29//7
f 15//7 16//7 48//7 43//7
f 21//7 63//7 32//7 3//7
f 10//7 44//7 63//7 21//7
f 61//7 45//7 41//7 65//7
f 31//2 65//2 42//2 11//2
f 3//2 32//2 65//2 31//2
f 22//2 66//2 33//2 4//2
f 11//2 42//2 66//2 22//2
f 42//2 15//2 40//2 66//2
f 37//3 67//3 39//3 14//3
f 9//3 28//3 67//3 37//3
f 28//3 1//3 27//3 67//3
f 35//3 68//3 38//3 13//3
f 5//3 20//3 68//3 35//3
f 20//3 9//3 37//3 68//3
f 24//3 69//3 23//3 6//3
f 13//3 38//3 69//3 24//3
f 38//3 14//3 36//3 69//3
f 36//3 70//3 33//3 12//3
f 14//3 39//3 70//3 36//3
f 39//3 8//3 19//3 70//3
f 40//2 71//2 23//2 12//2
f 15//2 43//2 71//2 40//2
f 50//1 72//1 31//1 11//1
f 17//1 53//1 72//1 50//1
f 53//1 10//1 21//1 72//1
f 57//7 25//7 71//7 59//7 34//7 58//7 49//7
