# Blender v2.76 (sub 0) OBJ File: ''
# www.blender.org
mtllib stair corner 2.mtl
o Cube
v 0.500000 -0.500000 -0.500000
v 0.500000 -0.500000 0.500000
v -0.500000 -0.500000 0.500000
v -0.500000 -0.500000 -0.500000
v 0.500000 0.500000 0.500000
v -0.500000 0.500000 0.500000
v -0.500000 0.500000 -0.500000
v 0.500000 -0.500000 0.000000
v 0.000000 -0.500000 -0.500000
v 0.000000 -0.500000 0.500000
v 0.500000 0.000000 0.500000
v -0.500000 -0.500000 -0.000000
v -0.500000 0.000000 0.500000
v -0.500000 0.000000 -0.500000
v -0.000000 0.500000 0.500000
v -0.500000 0.500000 -0.000000
v 0.000000 0.000000 -0.500000
v -0.500000 0.000000 -0.000000
v -0.000000 0.000000 0.500000
v 0.500000 0.000000 0.000000
v -0.000000 0.500000 0.000000
v 0.000000 -0.500000 -0.000000
v 0.500000 -0.500000 0.250000
v -0.250000 -0.500000 -0.500000
v -0.250000 -0.500000 0.500000
v 0.500000 0.250000 0.500000
v -0.500000 -0.500000 -0.250000
v -0.500000 0.250000 0.500000
v -0.500000 0.250000 -0.500000
v 0.500000 0.500000 0.250000
v -0.250000 0.500000 -0.500000
v -0.250000 0.500000 0.500000
v -0.500000 0.500000 -0.250000
v 0.500000 -0.500000 -0.250000
v 0.250000 -0.500000 -0.500000
v 0.500000 -0.250000 -0.500000
v 0.250000 -0.500000 0.500000
v 0.500000 -0.250000 0.500000
v -0.500000 -0.500000 0.250000
v -0.500000 -0.250000 0.500000
v -0.500000 -0.250000 -0.500000
v 0.250000 0.500000 0.500000
v -0.500000 0.500000 0.250000
v -0.250000 0.000000 -0.500000
v 0.250000 0.000000 -0.500000
v 0.000000 0.250000 -0.500000
v 0.000000 -0.250000 -0.500000
v -0.500000 0.000000 -0.250000
v -0.500000 0.000000 0.250000
v -0.500000 -0.250000 -0.000000
v -0.500000 0.250000 -0.000000
v -0.250000 0.000000 0.500000
v 0.250000 0.000000 0.500000
v -0.000000 -0.250000 0.500000
v -0.000000 0.250000 0.500000
v 0.500000 0.000000 0.250000
v 0.500000 0.000000 -0.250000
v 0.500000 -0.250000 0.000000
v 0.500000 0.250000 0.000000
v -0.000000 0.500000 0.250000
v 0.000000 0.500000 -0.250000
v 0.250000 0.500000 0.000000
v -0.250000 0.500000 0.000000
v -0.250000 -0.500000 -0.000000
v 0.250000 -0.500000 -0.000000
v 0.000000 -0.500000 -0.250000
v 0.000000 -0.500000 0.250000
v 0.250000 -0.500000 0.250000
v 0.250000 -0.500000 -0.250000
v -0.250000 -0.500000 -0.250000
v -0.250000 0.500000 -0.250000
v 0.250000 0.500000 0.250000
v 0.500000 -0.250000 -0.250000
v 0.500000 -0.250000 0.250000
v 0.250000 0.250000 0.500000
v 0.250000 -0.250000 0.500000
v -0.250000 -0.250000 0.500000
v -0.500000 0.250000 0.250000
v -0.500000 -0.250000 0.250000
v -0.500000 -0.250000 -0.250000
v 0.250000 -0.250000 -0.500000
v -0.250000 0.250000 -0.500000
v -0.250000 -0.250000 -0.500000
v -0.500000 0.250000 -0.250000
v -0.250000 0.250000 0.500000
v 0.500000 0.250000 0.250000
v -0.250000 0.500000 0.250000
v -0.250000 -0.500000 0.250000
vn 0.000000 -1.000000 -0.000000
vn 0.000000 1.000000 0.000000
vn 1.000000 0.000000 0.000000
vn -0.000000 0.000000 1.000000
vn -1.000000 -0.000000 -0.000000
vn 0.000000 0.000000 -1.000000
vn 0.707100 0.000000 -0.707100
usemtl Material
s off
f 88//1 25//1 3//1 39//1
f 87//2 43//2 6//2 32//2
f 86//3 30//3 5//3 26//3
f 85//4 32//4 6//4 28//4
f 84//5 33//5 7//5 29//5
f 83//6 24//6 4//6 41//6
f 82//6 44//6 14//6 29//6
f 81//6 35//6 9//6 47//6
f 80//5 48//5 14//5 41//5
f 79//5 49//5 18//5 50//5
f 78//5 43//5 16//5 51//5
f 77//4 52//4 13//4 40//4
f 76//4 53//4 19//4 54//4
f 75//4 42//4 15//4 55//4
f 74//3 56//3 11//3 38//3
f 73//3 57//3 20//3 58//3
f 72//2 60//2 15//2 42//2
f 71//2 33//2 16//2 63//2
f 70//1 64//1 12//1 27//1
f 69//1 65//1 22//1 66//1
f 68//1 37//1 10//1 67//1
f 65//1 68//1 67//1 22//1
f 8//1 23//1 68//1 65//1
f 23//1 2//1 37//1 68//1
f 35//1 69//1 66//1 9//1
f 1//1 34//1 69//1 35//1
f 34//1 8//1 65//1 69//1
f 24//1 70//1 27//1 4//1
f 9//1 66//1 70//1 24//1
f 66//1 22//1 64//1 70//1
f 61//2 71//2 63//2 21//2
f 31//2 7//2 33//2 71//2
f 30//2 72//2 42//2 5//2
f 62//2 21//2 60//2 72//2
f 73//2 36//2 81//2
f 73//7 81//7 45//7 57//7
f 34//3 73//3 58//3 8//3
f 1//3 36//3 73//3 34//3
f 17//2 20//2 57//2 45//2
f 23//3 74//3 38//3 2//3
f 8//3 58//3 74//3 23//3
f 58//3 20//3 56//3 74//3
f 53//4 75//4 55//4 19//4
f 11//4 26//4 75//4 53//4
f 26//4 5//4 42//4 75//4
f 37//4 76//4 54//4 10//4
f 2//4 38//4 76//4 37//4
f 38//4 11//4 53//4 76//4
f 25//4 77//4 40//4 3//4
f 10//4 54//4 77//4 25//4
f 54//4 19//4 52//4 77//4
f 49//5 78//5 51//5 18//5
f 13//5 28//5 78//5 49//5
f 28//5 6//5 43//5 78//5
f 39//5 79//5 50//5 12//5
f 3//5 40//5 79//5 39//5
f 40//5 13//5 49//5 79//5
f 27//5 80//5 41//5 4//5
f 12//5 50//5 80//5 27//5
f 50//5 18//5 48//5 80//5
f 45//6 81//6 47//6 17//6
f 59//7 20//7 17//7 46//7
f 36//6 1//6 35//6 81//6
f 59//2 46//2 82//2 86//2
f 30//7 86//7 82//7 31//7
f 71//2 61//2 31//2
f 31//6 82//6 29//6 7//6
f 21//2 62//2 61//2
f 46//6 17//6 44//6 82//6
f 44//6 83//6 41//6 14//6
f 17//6 47//6 83//6 44//6
f 47//6 9//6 24//6 83//6
f 48//5 84//5 29//5 14//5
f 18//5 51//5 84//5 48//5
f 51//5 16//5 33//5 84//5
f 52//4 85//4 28//4 13//4
f 19//4 55//4 85//4 52//4
f 55//4 15//4 32//4 85//4
f 56//3 86//3 26//3 11//3
f 20//3 59//3 86//3 56//3
f 72//2 30//2 62//2
f 60//2 87//2 32//2 15//2
f 21//2 63//2 87//2 60//2
f 63//2 16//2 43//2 87//2
f 64//1 88//1 39//1 12//1
f 22//1 67//1 88//1 64//1
f 67//1 10//1 25//1 88//1
