# Blender v2.76 (sub 0) OBJ File: ''
# www.blender.org
mtllib stair corner.mtl
o Cube
v 0.500000 -0.500000 0.500000
v -0.500000 -0.500000 0.500000
v -0.500000 -0.500000 -0.500000
v -0.500000 0.500000 0.500000
v 0.000000 -0.500000 0.500000
v -0.500000 -0.500000 -0.000000
v -0.500000 0.000000 0.500000
v -0.500000 0.000000 -0.000000
v -0.000000 0.000000 0.500000
v 0.000000 -0.500000 -0.000000
v -0.250000 -0.500000 0.500000
v -0.500000 -0.500000 -0.250000
v -0.500000 0.250000 0.500000
v -0.250000 0.500000 0.500000
v 0.250000 -0.500000 0.500000
v 0.500000 -0.250000 0.500000
v -0.500000 -0.500000 0.250000
v -0.500000 -0.250000 0.500000
v -0.500000 -0.250000 -0.500000
v -0.500000 0.500000 0.250000
v -0.500000 0.000000 -0.250000
v -0.500000 0.000000 0.250000
v -0.500000 -0.250000 -0.000000
v -0.500000 0.250000 -0.000000
v -0.250000 0.000000 0.500000
v 0.250000 0.000000 0.500000
v -0.000000 -0.250000 0.500000
v -0.000000 0.250000 0.500000
v -0.250000 -0.500000 -0.000000
v 0.000000 -0.500000 0.250000
v 0.250000 -0.500000 0.250000
v -0.250000 -0.500000 -0.250000
v 0.250000 -0.250000 0.500000
v -0.250000 -0.250000 0.500000
v -0.500000 0.250000 0.250000
v -0.500000 -0.250000 0.250000
v -0.500000 -0.250000 -0.250000
v -0.250000 0.250000 0.500000
v -0.250000 -0.500000 0.250000
vn 0.000000 -1.000000 -0.000000
vn -0.000000 0.000000 1.000000
vn -1.000000 -0.000000 -0.000000
vn 0.707100 0.000000 -0.707100
vn 0.000000 1.000000 0.000000
usemtl Material
s off
f 39//1 11//1 2//1 17//1
f 38//2 14//2 4//2 13//2
f 36//3 22//3 8//3 23//3
f 34//2 25//2 7//2 18//2
f 33//2 26//2 9//2 27//2
f 32//1 29//1 6//1 12//1
f 8//4 24//4 28//4 9//4
f 31//1 15//1 5//1 30//1
f 28//5 24//5 35//5 38//5
f 35//4 20//4 14//4 38//4
f 19//4 16//4 1//4 3//4
f 12//1 3//1 32//1
f 29//1 32//1 10//1
f 30//1 10//1 31//1
f 15//1 31//1 1//1
f 19//5 37//5 33//5 16//5
f 15//2 33//2 27//2 5//2
f 1//2 16//2 33//2 15//2
f 11//2 34//2 18//2 2//2
f 5//2 27//2 34//2 11//2
f 27//2 9//2 25//2 34//2
f 22//3 35//3 24//3 8//3
f 7//3 13//3 35//3 22//3
f 13//3 4//3 20//3 35//3
f 17//3 36//3 23//3 6//3
f 2//3 18//3 36//3 17//3
f 18//3 7//3 22//3 36//3
f 12//3 37//3 19//3 3//3
f 6//3 23//3 37//3 12//3
f 23//3 8//3 21//3 37//3
f 37//4 21//4 26//4 33//4
f 26//5 21//5 8//5 9//5
f 25//2 38//2 13//2 7//2
f 9//2 28//2 38//2 25//2
f 4//5 14//5 20//5
f 29//1 39//1 17//1 6//1
f 10//1 30//1 39//1 29//1
f 30//1 5//1 11//1 39//1
