# Blender v2.76 (sub 0) OBJ File: ''
# www.blender.org
mtllib wall Basic ok ok.mtl
o Cube.001
v -0.333333 0.500000 -0.500000
v -0.333333 0.166667 -0.500000
v -0.666667 0.166667 -0.500000
v -0.666667 0.500000 -0.500000
v -0.333333 -0.166667 -0.500000
v -0.666667 -0.166667 -0.500000
v -0.333333 -0.500000 -0.500000
v -0.666667 -0.500000 -0.500000
v -0.333333 -0.500000 0.500000
v -0.333333 -0.166667 0.500000
v -0.666667 -0.166667 0.500000
v -0.666667 -0.500000 0.500000
v -0.333334 0.166667 0.500000
v -0.666667 0.166667 0.500000
v -0.333334 0.500000 0.500000
v -0.666667 0.500000 0.500000
v -0.333333 0.500000 0.166667
v -0.666667 0.500000 0.166667
v -0.666667 0.500000 -0.166667
v -0.333333 0.500000 -0.166667
v -0.333333 -0.500000 -0.166667
v -0.666667 -0.500000 -0.166667
v -0.333333 -0.500000 0.166667
v -0.666667 -0.500000 0.166667
vn 0.000000 0.000000 -1.000000
vn 0.000000 -0.000000 1.000000
vn 0.000000 1.000000 0.000000
vn 0.000000 -1.000000 -0.000000
vn 1.000000 0.000000 0.000000
vn -1.000000 0.000000 0.000000
usemtl Material.001
s 1
f 1//1 2//1 3//1 4//1
f 2//1 5//1 6//1 3//1
f 5//1 7//1 8//1 6//1
f 9//2 10//2 11//2 12//2
f 10//2 13//2 14//2 11//2
f 13//2 15//2 16//2 14//2
f 17//3 18//3 16//3 15//3
f 1//3 4//3 19//3 20//3
f 20//3 19//3 18//3 17//3
f 7//4 21//4 22//4 8//4
f 21//4 23//4 24//4 22//4
f 2//5 1//5 20//5 17//5 15//5 13//5 10//5 9//5 23//5 21//5 7//5 5//5
f 23//4 9//4 12//4 24//4
f 3//6 6//6 8//6 22//6 24//6 12//6 11//6 14//6 16//6 18//6 19//6 4//6
